<svg width="256" height="288" viewBox="0 0 256 288" fill="none" xmlns="http://www.w3.org/2000/svg">
<g clip-path="url(#clip0_2283_361)">
<path d="M113.938 4.13501C123.04 -1.23459 131.931 -1.42724 141.101 3.86646C175.115 23.5054 209.173 43.0649 243.198 62.6838C247.32 65.0708 250.393 68.0898 252.445 71.6917C254.534 75.3545 255.567 79.6226 255.569 84.4524C255.582 123.857 255.582 202.592 255.582 202.797C255.582 207.522 254.589 211.708 252.595 215.316C252.21 216.011 251.788 216.685 251.328 217.337C251.022 217.772 250.698 218.197 250.357 218.613C248.487 220.898 246.108 222.89 243.209 224.568C209.179 244.186 175.119 263.744 141.104 283.384C139.671 284.211 138.245 284.905 136.823 285.466C136.254 285.69 135.686 285.894 135.119 286.075C134.552 286.257 133.986 286.418 133.42 286.558C133.137 286.628 132.854 286.692 132.571 286.751C132.289 286.81 132.007 286.865 131.725 286.913C131.301 286.986 130.877 287.047 130.454 287.097C130.313 287.113 130.172 287.128 130.03 287.142C129.466 287.197 128.902 287.233 128.339 287.246C128.057 287.253 127.776 287.255 127.494 287.251C127.212 287.248 126.93 287.238 126.648 287.224C126.507 287.217 126.367 287.209 126.226 287.199C125.944 287.18 125.662 287.156 125.381 287.126C125.24 287.111 125.1 287.096 124.959 287.078C124.677 287.044 124.395 287.003 124.113 286.958C123.832 286.913 123.55 286.862 123.269 286.807C122.423 286.64 121.577 286.428 120.73 286.169C120.166 285.996 119.601 285.803 119.036 285.589C118.471 285.375 117.906 285.141 117.34 284.887C116.207 284.378 115.072 283.787 113.934 283.115C112.241 282.117 109.7 280.636 106.511 278.786C100.132 275.087 91.1562 269.913 81.1768 264.169C56.2279 249.81 25.0027 231.894 12.374 224.579C11.5832 224.122 10.8308 223.641 10.1172 223.137C9.64172 222.801 9.18357 222.455 8.74219 222.099C7.85898 221.387 7.04354 220.634 6.2959 219.842C5.17446 218.654 4.20454 217.377 3.38477 216.014L2.98828 215.325C0.991392 211.718 6.61908e-05 207.533 0 202.809C0.0129999 163.353 -0.000304536 123.898 0.0126953 84.4436C0.0147394 74.8617 4.06386 67.4891 12.3848 62.6721C32.5898 50.9691 100.395 12.122 113.938 4.13501ZM128.457 48.6262C75.9889 48.6262 33.4563 91.1594 33.4561 143.625C33.4561 160.838 38.0352 176.98 46.0381 190.903C62.4314 219.422 93.2026 238.626 128.457 238.626L129.515 238.62C164.25 238.241 194.513 219.214 210.768 191.084L169.481 167.166L169.678 166.821C161.565 181.208 146.15 190.932 128.457 190.932C110.873 190.932 95.5438 181.33 87.3896 167.095C83.4285 160.178 81.1505 152.169 81.1504 143.625C81.1506 117.5 102.332 96.3206 128.457 96.3206L128.996 96.3235C146.128 96.5152 161.063 105.824 169.21 119.617L210.558 95.8088C194.084 67.5905 163.487 48.6264 128.457 48.6262ZM195.155 116.294V129.768H181.682V136.505H195.155V149.979H181.682V156.715H195.155V170.189H201.893V156.715H215.366V170.189H222.103V156.715H235.576V149.979H222.103V136.505H235.576V129.768H222.103V116.294H215.366V129.768H201.893V116.294H195.155ZM215.366 136.505V149.979H201.893V136.505H215.366Z" fill="white"/>
</g>
<defs>
<clipPath id="clip0_2283_361">
<rect width="256" height="288" fill="white"/>
</clipPath>
</defs>
</svg>
